<svg width="1200" height="1600" viewBox="0 0 1200 1600" fill="none" xmlns="http://www.w3.org/2000/svg">
  <!-- Background -->
  <rect width="1200" height="1600" fill="#F4F7F9"/>
  
  <!-- Header -->
  <rect width="1200" height="80" fill="#2B2D42"/>
  <text x="50" y="50" fill="white" font-family="Arial, sans-serif" font-size="28" font-weight="bold">AniCrave</text>
  
  <!-- Navigation links -->
  <text x="300" y="48" fill="#A0B1C5" font-family="Arial, sans-serif" font-size="16">Browse</text>
  <text x="400" y="48" fill="#A0B1C5" font-family="Arial, sans-serif" font-size="16">Trending</text>
  <text x="500" y="48" fill="#A0B1C5" font-family="Arial, sans-serif" font-size="16">Favorites</text>
  
  <!-- Search Bar -->
  <rect x="800" y="25" width="300" height="30" rx="15" fill="#151F2E" stroke="#3DB4F2" stroke-width="1"/>
  <text x="820" y="45" fill="#9CADBD" font-family="Arial, sans-serif" font-size="14">Search...</text>
  
  <!-- Hero Section -->
  <rect y="80" width="1200" height="400" fill="#151F2E"/>
  <rect x="100" y="130" width="400" height="300" rx="8" fill="#2B3D52" stroke="#3DB4F2" stroke-width="2"/>
  <line x1="100" y1="130" x2="500" y2="430" stroke="#3DB4F2" stroke-opacity="0.2"/>
  <line x1="500" y1="130" x2="100" y2="430" stroke="#3DB4F2" stroke-opacity="0.2"/>
  
  <text x="550" y="200" fill="white" font-family="Arial, sans-serif" font-size="36" font-weight="bold">AniCrave: Track Your</text>
  <text x="550" y="250" fill="white" font-family="Arial, sans-serif" font-size="36" font-weight="bold">Anime Journey</text>
  <rect x="550" y="300" width="150" height="45" rx="22.5" fill="#3DB4F2"/>
  <text x="585" y="328" fill="white" font-family="Arial, sans-serif" font-size="16" font-weight="bold">SIGN UP</text>
  
  <!-- Filters Bar -->
  <rect y="500" width="1200" height="80" fill="white"/>
  <rect x="100" y="520" width="200" height="40" rx="4" fill="#F4F7F9" stroke="#E1E8ED"/>
  <rect x="330" y="520" width="150" height="40" rx="4" fill="#F4F7F9" stroke="#E1E8ED"/>
  <rect x="510" y="520" width="150" height="40" rx="4" fill="#F4F7F9" stroke="#E1E8ED"/>
  
  <!-- Anime Grid -->
  <!-- Row 1 -->
  <rect x="100" y="620" width="180" height="270" rx="4" fill="#E1E8ED" stroke="#BCCADA"/>
  <rect x="320" y="620" width="180" height="270" rx="4" fill="#E1E8ED" stroke="#BCCADA"/>
  <rect x="540" y="620" width="180" height="270" rx="4" fill="#E1E8ED" stroke="#BCCADA"/>
  <rect x="760" y="620" width="180" height="270" rx="4" fill="#E1E8ED" stroke="#BCCADA"/>
  <rect x="980" y="620" width="180" height="270" rx="4" fill="#E1E8ED" stroke="#BCCADA"/>
  
  <!-- Row 2 -->
  <rect x="100" y="940" width="180" height="270" rx="4" fill="#E1E8ED" stroke="#BCCADA"/>
  <rect x="320" y="940" width="180" height="270" rx="4" fill="#E1E8ED" stroke="#BCCADA"/>
  <rect x="540" y="940" width="180" height="270" rx="4" fill="#E1E8ED" stroke="#BCCADA"/>
  <rect x="760" y="940" width="180" height="270" rx="4" fill="#E1E8ED" stroke="#BCCADA"/>
  <rect x="980" y="940" width="180" height="270" rx="4" fill="#E1E8ED" stroke="#BCCADA"/>
  
  <!-- Footer -->
  <rect y="1300" width="1200" height="300" fill="#2B2D42"/>
  <text x="550" y="1400" fill="white" font-family="Arial, sans-serif" font-size="20" font-weight="bold">AniCrave</text>
  <text x="500" y="1450" fill="#A0B1C5" font-family="Arial, sans-serif" font-size="14">© 2026 AniCrave. All rights reserved.</text>
</svg>
